<svg xmlns="http://www.w3.org/2000/svg" version="1.1" xlink="http://www.w3.org/1999/xlink" xmlns:svgjs="http://svgjs.com/svgjs" width="100%" height="100%" viewBox="2.606269359588623 -24.361875534057617 354.0637512207031 24.81187629699707"><g fill="#212121"><path d="M5.92 -16.24C5.43 -16.96 5.19 -17.82 5.19 -18.82C5.19 -20.04 5.54 -21.08 6.24 -21.95C6.93 -22.82 8.03 -23.26 9.52 -23.26C11.14 -23.26 12.38 -22.74 13.24 -21.71C14.09 -20.68 14.59 -19.51 14.71 -18.22C14.71 -18.12 14.79 -18.08 14.93 -18.09C15.08 -18.1 15.16 -18.16 15.16 -18.26L14.86 -22.22C14.86 -22.49 14.66 -22.7 14.26 -22.85C12.79 -23.45 11.38 -23.75 10.01 -23.75C8.84 -23.75 7.74 -23.53 6.72 -23.09C5.7 -22.66 4.87 -22 4.24 -21.13C3.6 -20.26 3.29 -19.2 3.29 -17.96C3.29 -16.89 3.53 -15.96 4.01 -15.18C4.5 -14.39 5.1 -13.74 5.81 -13.22C6.52 -12.69 7.48 -12.07 8.7 -11.35C9.92 -10.63 10.9 -10 11.63 -9.46C12.36 -8.93 12.98 -8.26 13.48 -7.45C13.98 -6.64 14.23 -5.68 14.23 -4.56C14.23 -3.01 13.77 -1.88 12.86 -1.16C11.95 -0.44 10.84 -0.07 9.52 -0.07C8.25 -0.07 7.15 -0.39 6.22 -1.01C5.28 -1.63 4.56 -2.43 4.03 -3.4C3.51 -4.37 3.19 -5.39 3.06 -6.46C3.04 -6.56 2.95 -6.6 2.8 -6.57C2.65 -6.55 2.59 -6.48 2.61 -6.38L3.17 -1.53C3.2 -1.38 3.24 -1.24 3.29 -1.12C3.34 -1 3.42 -0.9 3.55 -0.82C4.47 -0.35 5.33 -0.02 6.14 0.17C6.95 0.35 7.8 0.45 8.7 0.45C10.32 0.45 11.7 0.17 12.84 -0.39C13.99 -0.95 14.85 -1.71 15.42 -2.67C15.99 -3.63 16.28 -4.69 16.28 -5.86C16.28 -6.98 16.02 -7.95 15.49 -8.76C14.97 -9.56 14.34 -10.24 13.59 -10.77C12.84 -11.31 11.84 -11.94 10.57 -12.66C9.37 -13.3 8.42 -13.88 7.71 -14.39C7 -14.9 6.4 -15.52 5.92 -16.24Z M20.2 -0.22C20.2 -0.07 20.24 0 20.31 0C21.06 0 21.64 -0.01 22.07 -0.04L24.46 -0.07L26.92 -0.04C27.32 -0.01 27.85 0 28.53 0C28.6 0 28.64 -0.07 28.64 -0.22C28.64 -0.37 28.59 -0.45 28.49 -0.45C27.57 -0.45 26.9 -0.51 26.49 -0.63C26.08 -0.76 25.8 -1 25.65 -1.34C25.5 -1.69 25.41 -2.25 25.39 -3.02L25.39 -20.24C25.41 -20.98 25.5 -21.54 25.65 -21.9C25.8 -22.26 26.09 -22.51 26.51 -22.66C26.93 -22.81 27.59 -22.89 28.49 -22.89C28.59 -22.89 28.64 -22.96 28.64 -23.11C28.64 -23.26 28.59 -23.34 28.49 -23.34L26.92 -23.3C25.92 -23.25 25.07 -23.22 24.34 -23.22C23.7 -23.22 22.9 -23.25 21.95 -23.3L20.27 -23.34C20.22 -23.34 20.2 -23.26 20.2 -23.11C20.2 -22.96 20.22 -22.89 20.27 -22.89C21.19 -22.89 21.87 -22.82 22.29 -22.68C22.71 -22.54 23.01 -22.3 23.17 -21.95C23.33 -21.61 23.41 -21.06 23.41 -20.31L23.41 -3.02C23.43 -2.28 23.37 -1.73 23.2 -1.38C23.04 -1.03 22.74 -0.79 22.31 -0.65C21.87 -0.52 21.19 -0.45 20.27 -0.45C20.22 -0.45 20.2 -0.37 20.2 -0.22Z M58.88 -0.22C58.88 -0.37 58.84 -0.45 58.77 -0.45C57.85 -0.45 57.18 -0.51 56.77 -0.63C56.36 -0.76 56.08 -1 55.93 -1.34C55.78 -1.69 55.68 -2.25 55.63 -3.02L55.11 -20.39C55.06 -21.38 55.3 -22.05 55.84 -22.38C56.37 -22.72 57.25 -22.89 58.47 -22.89C58.54 -22.89 58.58 -22.96 58.58 -23.11C58.58 -23.26 58.54 -23.34 58.47 -23.34C58 -23.34 57.62 -23.32 57.35 -23.3L55.67 -23.26C55.32 -23.26 55.03 -23.27 54.79 -23.3C54.55 -23.32 54.37 -23.34 54.25 -23.34C54 -23.34 53.77 -23.25 53.56 -23.07C53.35 -22.9 53.19 -22.68 53.09 -22.4L45.36 -3.17L37.6 -21.39C37.22 -22.19 36.93 -22.71 36.72 -22.96C36.51 -23.21 36.25 -23.34 35.95 -23.34C35.83 -23.34 35.64 -23.32 35.38 -23.3C35.11 -23.27 34.8 -23.26 34.42 -23.26C34.05 -23.26 33.74 -23.27 33.49 -23.3L32.22 -23.34C32.17 -23.34 32.15 -23.26 32.15 -23.11C32.15 -22.96 32.18 -22.89 32.26 -22.89C33.45 -22.89 34.39 -22.49 35.06 -21.69L34.95 -3.88C34.95 -2.61 34.74 -1.72 34.31 -1.21C33.89 -0.7 33.18 -0.45 32.18 -0.45C32.13 -0.45 32.11 -0.37 32.11 -0.22C32.11 -0.07 32.15 0 32.22 0C32.82 0 33.28 -0.01 33.6 -0.04L35.28 -0.07L37.08 -0.04C37.35 -0.01 37.76 0 38.31 0C38.41 0 38.45 -0.07 38.44 -0.22C38.43 -0.37 38.38 -0.45 38.31 -0.45C37.34 -0.45 36.67 -0.7 36.31 -1.19C35.95 -1.69 35.76 -2.59 35.73 -3.88L35.81 -20.5L35.92 -20.24L44.43 -0.3C44.48 -0.17 44.58 -0.11 44.73 -0.11C44.9 -0.11 44.99 -0.16 44.99 -0.26L53.2 -20.76L53.73 -3.02C53.75 -2.28 53.69 -1.73 53.54 -1.38C53.39 -1.03 53.1 -0.79 52.66 -0.65C52.23 -0.52 51.55 -0.45 50.63 -0.45C50.53 -0.45 50.49 -0.37 50.5 -0.22C50.51 -0.07 50.55 0 50.63 0C51.33 0 51.87 -0.01 52.27 -0.04L54.66 -0.07L57.16 -0.04C57.56 -0.01 58.1 0 58.77 0C58.84 0 58.88 -0.07 58.88 -0.22Z M61.36 -0.22C61.37 -0.07 61.41 0 61.46 0C62.15 0 62.7 -0.01 63.1 -0.04L65.45 -0.07L67.95 -0.04C68.38 -0.01 68.94 0 69.63 0C69.68 0 69.71 -0.07 69.71 -0.22C69.71 -0.37 69.68 -0.45 69.63 -0.45C68.69 -0.45 68 -0.51 67.58 -0.63C67.16 -0.76 66.88 -1 66.74 -1.34C66.6 -1.69 66.53 -2.25 66.53 -3.02L66.5 -20.24C66.52 -21.13 66.61 -21.77 66.76 -22.14C66.91 -22.51 67.18 -22.74 67.58 -22.83C67.98 -22.92 68.67 -22.96 69.67 -22.96C70.76 -22.96 71.8 -22.71 72.77 -22.2C73.74 -21.69 74.52 -20.95 75.12 -19.97C75.72 -19 76.02 -17.87 76.02 -16.58C76.02 -15.21 75.69 -14.05 75.03 -13.11C74.37 -12.16 73.51 -11.46 72.45 -11C71.39 -10.54 70.29 -10.3 69.15 -10.3C68.7 -10.3 68.29 -10.35 67.91 -10.45C67.89 -10.48 67.86 -10.45 67.82 -10.38C67.78 -10.3 67.77 -10.23 67.77 -10.16C67.77 -10.03 67.79 -9.97 67.84 -9.97C68.26 -9.84 68.85 -9.78 69.6 -9.78C70.91 -9.78 72.25 -10.06 73.59 -10.62C74.93 -11.18 76.06 -12.03 76.97 -13.16C77.88 -14.29 78.33 -15.68 78.33 -17.32C78.33 -19.37 77.58 -20.9 76.07 -21.92C74.57 -22.94 72.71 -23.45 70.49 -23.45C69.62 -23.45 68.56 -23.4 67.32 -23.3C66.37 -23.25 65.75 -23.22 65.45 -23.22C64.83 -23.22 64.04 -23.25 63.1 -23.3L61.46 -23.34C61.38 -23.34 61.35 -23.26 61.36 -23.11C61.37 -22.96 61.41 -22.89 61.46 -22.89C62.35 -22.89 63.02 -22.82 63.45 -22.68C63.89 -22.54 64.18 -22.3 64.33 -21.95C64.48 -21.61 64.57 -21.06 64.59 -20.31L64.59 -3.02C64.59 -2.28 64.51 -1.72 64.35 -1.36C64.19 -1 63.89 -0.76 63.45 -0.63C63.02 -0.51 62.35 -0.45 61.46 -0.45C61.38 -0.45 61.35 -0.37 61.36 -0.22Z M81.26 -0.22C81.28 -0.07 81.31 0 81.36 0L98.42 0C98.64 0 98.8 -0.04 98.9 -0.13C99 -0.22 99.05 -0.36 99.05 -0.56C99.05 -2.3 99.14 -3.93 99.31 -5.45C99.31 -5.5 99.28 -5.54 99.22 -5.56C99.16 -5.59 99.09 -5.6 99.02 -5.6C98.89 -5.6 98.83 -5.56 98.83 -5.49C98.61 -3.95 98.15 -2.76 97.47 -1.92C96.78 -1.09 95.73 -0.67 94.31 -0.67L89.42 -0.67C88.52 -0.67 87.87 -0.73 87.46 -0.86C87.05 -0.98 86.78 -1.21 86.64 -1.55C86.5 -1.89 86.42 -2.43 86.4 -3.17L86.4 -20.27C86.42 -21.02 86.51 -21.57 86.66 -21.94C86.81 -22.3 87.09 -22.54 87.52 -22.68C87.94 -22.82 88.61 -22.89 89.53 -22.89C89.58 -22.89 89.61 -22.96 89.61 -23.11C89.61 -23.26 89.58 -23.34 89.53 -23.34L87.82 -23.3C86.82 -23.25 86.01 -23.22 85.39 -23.22C84.77 -23.22 83.98 -23.25 83.04 -23.3L81.39 -23.34C81.32 -23.34 81.29 -23.26 81.3 -23.11C81.31 -22.96 81.34 -22.89 81.39 -22.89C82.29 -22.89 82.94 -22.82 83.35 -22.68C83.76 -22.54 84.04 -22.3 84.19 -21.95C84.34 -21.61 84.43 -21.06 84.45 -20.31L84.45 -3.02C84.45 -2.28 84.37 -1.72 84.21 -1.36C84.05 -1 83.76 -0.76 83.33 -0.63C82.91 -0.51 82.25 -0.45 81.36 -0.45C81.28 -0.45 81.25 -0.37 81.26 -0.22Z M118.58 -5.6C118.46 -5.6 118.39 -5.56 118.39 -5.49C118.19 -4.04 117.77 -2.88 117.11 -2C116.45 -1.11 115.67 -0.67 114.77 -0.67L109.4 -0.67C108.5 -0.67 107.85 -0.73 107.44 -0.86C107.02 -0.98 106.74 -1.22 106.6 -1.57C106.45 -1.92 106.37 -2.45 106.37 -3.17L106.37 -11.8L112.27 -11.8C113.39 -11.8 114.17 -11.57 114.62 -11.11C115.07 -10.65 115.29 -9.86 115.29 -8.74C115.29 -8.64 115.37 -8.59 115.52 -8.59C115.67 -8.59 115.74 -8.64 115.74 -8.74C115.74 -9.18 115.72 -9.78 115.67 -10.53L115.63 -12.13L115.63 -13.89L115.63 -15.08C115.66 -15.18 115.59 -15.23 115.44 -15.23C115.29 -15.23 115.22 -15.18 115.22 -15.08C115.25 -14.14 115.05 -13.47 114.64 -13.09C114.23 -12.7 113.5 -12.51 112.46 -12.51L106.37 -12.51L106.37 -20.27C106.4 -21.02 106.48 -21.57 106.61 -21.92C106.75 -22.26 107.02 -22.5 107.44 -22.63C107.85 -22.75 108.5 -22.81 109.4 -22.81L113.47 -22.81C114.49 -22.81 115.3 -22.41 115.91 -21.62C116.52 -20.82 116.84 -19.76 116.86 -18.44C116.86 -18.34 116.95 -18.29 117.12 -18.29C117.27 -18.29 117.35 -18.34 117.35 -18.44L117.31 -19.79L117.2 -23C117.2 -23.12 117.18 -23.21 117.14 -23.26C117.11 -23.31 117.04 -23.34 116.94 -23.34L101.26 -23.34C101.21 -23.34 101.18 -23.26 101.18 -23.11C101.18 -22.96 101.21 -22.89 101.26 -22.89C102.18 -22.89 102.85 -22.82 103.27 -22.68C103.7 -22.54 103.99 -22.3 104.15 -21.95C104.31 -21.61 104.42 -21.06 104.47 -20.31L104.47 -3.02C104.47 -2.28 104.39 -1.72 104.22 -1.36C104.06 -1 103.77 -0.76 103.35 -0.63C102.92 -0.51 102.25 -0.45 101.33 -0.45C101.26 -0.45 101.22 -0.37 101.22 -0.22C101.22 -0.07 101.26 0 101.33 0L117.98 0C118.21 0 118.36 -0.04 118.45 -0.13C118.54 -0.22 118.58 -0.36 118.58 -0.56C118.58 -2.63 118.68 -4.24 118.88 -5.41C118.9 -5.46 118.88 -5.51 118.8 -5.54C118.73 -5.58 118.66 -5.6 118.58 -5.6Z M135.94 -0.22C135.94 -0.07 135.99 0 136.09 0C136.81 0 137.37 -0.01 137.77 -0.04L140.16 -0.07L142.63 -0.04C143.02 -0.01 143.58 0 144.31 0C144.36 0 144.38 -0.07 144.38 -0.22C144.38 -0.37 144.36 -0.45 144.31 -0.45C143.36 -0.45 142.67 -0.51 142.25 -0.63C141.83 -0.76 141.55 -1 141.41 -1.34C141.27 -1.69 141.19 -2.25 141.17 -3.02L141.09 -20.24C141.09 -20.93 141.16 -21.46 141.28 -21.8C141.41 -22.15 141.65 -22.4 142.03 -22.53C142.4 -22.67 142.97 -22.74 143.75 -22.74L144.87 -22.74C146.11 -22.74 147.06 -22.58 147.72 -22.25C148.38 -21.93 148.84 -21.41 149.1 -20.68C149.36 -19.96 149.49 -18.93 149.49 -17.59C149.49 -17.51 149.58 -17.47 149.74 -17.47C149.9 -17.47 149.98 -17.51 149.98 -17.59C149.96 -18.11 149.98 -19.1 150.06 -20.55C150.13 -22.01 150.2 -23.22 150.28 -24.19C150.3 -24.29 150.25 -24.35 150.11 -24.36C149.97 -24.37 149.88 -24.34 149.83 -24.27C149.73 -23.9 149.49 -23.65 149.12 -23.52C148.75 -23.4 148.15 -23.34 147.33 -23.34L144.72 -23.3C143.02 -23.25 141.49 -23.22 140.12 -23.22C137.09 -23.22 134.56 -23.26 132.54 -23.34C131.42 -23.34 130.86 -23.6 130.86 -24.12C130.86 -24.17 130.83 -24.21 130.77 -24.23C130.71 -24.26 130.64 -24.27 130.57 -24.27C130.44 -24.27 130.38 -24.23 130.38 -24.16C130.13 -20.55 129.94 -18.34 129.82 -17.55C129.82 -17.47 129.92 -17.44 130.12 -17.44C130.22 -17.44 130.27 -17.46 130.27 -17.51C130.44 -18.85 130.7 -19.9 131.05 -20.65C131.4 -21.39 131.9 -21.93 132.56 -22.25C133.22 -22.58 134.14 -22.74 135.31 -22.74L136.39 -22.74C137.21 -22.74 137.81 -22.68 138.2 -22.55C138.59 -22.43 138.85 -22.2 138.98 -21.86C139.12 -21.52 139.19 -21.01 139.19 -20.31L139.19 -3.02C139.22 -2.28 139.15 -1.72 138.98 -1.36C138.82 -1 138.52 -0.76 138.09 -0.63C137.65 -0.51 136.97 -0.45 136.05 -0.45C135.98 -0.45 135.94 -0.37 135.94 -0.22Z M176.34 -0.22C176.34 -0.37 176.29 -0.45 176.19 -0.45C175.15 -0.45 174.07 -0.84 172.96 -1.62C171.85 -2.41 170.58 -3.68 169.15 -5.45C167.72 -7.22 165.94 -9.7 163.79 -12.88C164.94 -13.53 165.85 -14.37 166.54 -15.42C167.22 -16.47 167.57 -17.59 167.57 -18.78C167.57 -20.25 167.04 -21.39 166 -22.22C164.95 -23.04 163.46 -23.45 161.52 -23.45C160.92 -23.45 160.25 -23.41 159.5 -23.34C159.2 -23.31 158.85 -23.29 158.46 -23.26C158.06 -23.24 157.65 -23.22 157.22 -23.22C156.6 -23.22 155.79 -23.25 154.8 -23.3L152.97 -23.34C152.87 -23.34 152.82 -23.26 152.82 -23.11C152.82 -22.96 152.87 -22.89 152.97 -22.89C153.94 -22.89 154.65 -22.82 155.1 -22.68C155.54 -22.54 155.85 -22.3 156.01 -21.95C156.17 -21.61 156.27 -21.06 156.29 -20.31L156.29 -3.02C156.29 -2.28 156.2 -1.73 156.01 -1.38C155.82 -1.03 155.49 -0.79 155.02 -0.65C154.55 -0.52 153.83 -0.45 152.86 -0.45C152.76 -0.45 152.71 -0.37 152.71 -0.22C152.71 -0.07 152.76 0 152.86 0C153.63 0 154.24 -0.01 154.68 -0.04L157.15 -0.07L159.69 -0.04C160.11 -0.01 160.7 0 161.44 0C161.52 0 161.55 -0.07 161.55 -0.22C161.55 -0.37 161.5 -0.45 161.41 -0.45C160.43 -0.45 159.74 -0.51 159.31 -0.63C158.89 -0.76 158.61 -1 158.46 -1.34C158.31 -1.69 158.22 -2.25 158.19 -3.02L158.27 -11.95C158.82 -11.9 159.33 -11.87 159.8 -11.87C160.57 -11.87 161.39 -12 162.26 -12.25C164.78 -8.39 166.91 -5.38 168.67 -3.23C170.42 -1.08 171.62 0 172.27 0L176.19 0C176.29 0 176.34 -0.07 176.34 -0.22ZM160.43 -12.69C159.94 -12.69 159.19 -12.74 158.19 -12.84L158.19 -20.24C158.22 -21.11 158.31 -21.73 158.46 -22.1C158.61 -22.48 158.84 -22.71 159.15 -22.81C159.46 -22.91 159.96 -22.96 160.66 -22.96C162.15 -22.96 163.33 -22.53 164.19 -21.67C165.05 -20.82 165.47 -19.43 165.47 -17.51C165.47 -15.82 165.08 -14.59 164.3 -13.83C163.51 -13.07 162.23 -12.69 160.43 -12.69Z M194.67 -5.6C194.55 -5.6 194.49 -5.56 194.49 -5.49C194.29 -4.04 193.86 -2.88 193.2 -2C192.54 -1.11 191.76 -0.67 190.86 -0.67L185.49 -0.67C184.59 -0.67 183.94 -0.73 183.53 -0.86C183.12 -0.98 182.84 -1.22 182.69 -1.57C182.54 -1.92 182.46 -2.45 182.46 -3.17L182.46 -11.8L188.36 -11.8C189.48 -11.8 190.27 -11.57 190.71 -11.11C191.16 -10.65 191.39 -9.86 191.39 -8.74C191.39 -8.64 191.46 -8.59 191.61 -8.59C191.76 -8.59 191.83 -8.64 191.83 -8.74C191.83 -9.18 191.81 -9.78 191.76 -10.53L191.72 -12.13L191.72 -13.89L191.72 -15.08C191.75 -15.18 191.69 -15.23 191.54 -15.23C191.39 -15.23 191.31 -15.18 191.31 -15.08C191.34 -14.14 191.14 -13.47 190.73 -13.09C190.32 -12.7 189.59 -12.51 188.55 -12.51L182.46 -12.51L182.46 -20.27C182.49 -21.02 182.57 -21.57 182.71 -21.92C182.84 -22.26 183.12 -22.5 183.53 -22.63C183.94 -22.75 184.59 -22.81 185.49 -22.81L189.56 -22.81C190.58 -22.81 191.39 -22.41 192 -21.62C192.61 -20.82 192.93 -19.76 192.95 -18.44C192.95 -18.34 193.04 -18.29 193.22 -18.29C193.37 -18.29 193.44 -18.34 193.44 -18.44L193.4 -19.79L193.29 -23C193.29 -23.12 193.27 -23.21 193.23 -23.26C193.2 -23.31 193.13 -23.34 193.03 -23.34L177.35 -23.34C177.3 -23.34 177.27 -23.26 177.27 -23.11C177.27 -22.96 177.3 -22.89 177.35 -22.89C178.27 -22.89 178.94 -22.82 179.36 -22.68C179.79 -22.54 180.08 -22.3 180.24 -21.95C180.4 -21.61 180.51 -21.06 180.56 -20.31L180.56 -3.02C180.56 -2.28 180.48 -1.72 180.32 -1.36C180.15 -1 179.86 -0.76 179.44 -0.63C179.02 -0.51 178.34 -0.45 177.42 -0.45C177.35 -0.45 177.31 -0.37 177.31 -0.22C177.31 -0.07 177.35 0 177.42 0L194.07 0C194.3 0 194.45 -0.04 194.54 -0.13C194.63 -0.22 194.67 -0.36 194.67 -0.56C194.67 -2.63 194.77 -4.24 194.97 -5.41C195 -5.46 194.97 -5.51 194.9 -5.54C194.82 -5.58 194.75 -5.6 194.67 -5.6Z M215.21 -5.6C215.08 -5.6 215.02 -5.56 215.02 -5.49C214.82 -4.04 214.39 -2.88 213.73 -2C213.07 -1.11 212.29 -0.67 211.4 -0.67L206.02 -0.67C205.13 -0.67 204.47 -0.73 204.06 -0.86C203.65 -0.98 203.37 -1.22 203.22 -1.57C203.07 -1.92 203 -2.45 203 -3.17L203 -11.8L208.9 -11.8C210.02 -11.8 210.8 -11.57 211.25 -11.11C211.7 -10.65 211.92 -9.86 211.92 -8.74C211.92 -8.64 212 -8.59 212.15 -8.59C212.29 -8.59 212.37 -8.64 212.37 -8.74C212.37 -9.18 212.34 -9.78 212.29 -10.53L212.26 -12.13L212.26 -13.89L212.26 -15.08C212.28 -15.18 212.22 -15.23 212.07 -15.23C211.92 -15.23 211.85 -15.18 211.85 -15.08C211.87 -14.14 211.68 -13.47 211.27 -13.09C210.86 -12.7 210.13 -12.51 209.08 -12.51L203 -12.51L203 -20.27C203.02 -21.02 203.1 -21.57 203.24 -21.92C203.38 -22.26 203.65 -22.5 204.06 -22.63C204.47 -22.75 205.13 -22.81 206.02 -22.81L210.09 -22.81C211.11 -22.81 211.93 -22.41 212.54 -21.62C213.15 -20.82 213.46 -19.76 213.49 -18.44C213.49 -18.34 213.58 -18.29 213.75 -18.29C213.9 -18.29 213.97 -18.34 213.97 -18.44L213.94 -19.79L213.83 -23C213.83 -23.12 213.81 -23.21 213.77 -23.26C213.73 -23.31 213.66 -23.34 213.56 -23.34L197.88 -23.34C197.83 -23.34 197.81 -23.26 197.81 -23.11C197.81 -22.96 197.83 -22.89 197.88 -22.89C198.8 -22.89 199.48 -22.82 199.9 -22.68C200.32 -22.54 200.61 -22.3 200.78 -21.95C200.94 -21.61 201.04 -21.06 201.09 -20.31L201.09 -3.02C201.09 -2.28 201.01 -1.72 200.85 -1.36C200.69 -1 200.4 -0.76 199.97 -0.63C199.55 -0.51 198.88 -0.45 197.96 -0.45C197.88 -0.45 197.85 -0.37 197.85 -0.22C197.85 -0.07 197.88 0 197.96 0L214.61 0C214.83 0 214.99 -0.04 215.08 -0.13C215.16 -0.22 215.21 -0.36 215.21 -0.56C215.21 -2.63 215.31 -4.24 215.51 -5.41C215.53 -5.46 215.51 -5.51 215.43 -5.54C215.36 -5.58 215.28 -5.6 215.21 -5.6Z M244.48 -5.6C244.35 -5.6 244.29 -5.56 244.29 -5.49C244.09 -4.04 243.66 -2.88 243 -2C242.34 -1.11 241.57 -0.67 240.67 -0.67L235.29 -0.67C234.4 -0.67 233.74 -0.73 233.33 -0.86C232.92 -0.98 232.64 -1.22 232.49 -1.57C232.34 -1.92 232.27 -2.45 232.27 -3.17L232.27 -11.8L238.17 -11.8C239.29 -11.8 240.07 -11.57 240.52 -11.11C240.97 -10.65 241.19 -9.86 241.19 -8.74C241.19 -8.64 241.27 -8.59 241.42 -8.59C241.57 -8.59 241.64 -8.64 241.64 -8.74C241.64 -9.18 241.62 -9.78 241.57 -10.53L241.53 -12.13L241.53 -13.89L241.53 -15.08C241.55 -15.18 241.49 -15.23 241.34 -15.23C241.19 -15.23 241.12 -15.18 241.12 -15.08C241.14 -14.14 240.95 -13.47 240.54 -13.09C240.13 -12.7 239.4 -12.51 238.36 -12.51L232.27 -12.51L232.27 -20.27C232.29 -21.02 232.38 -21.57 232.51 -21.92C232.65 -22.26 232.92 -22.5 233.33 -22.63C233.74 -22.75 234.4 -22.81 235.29 -22.81L239.36 -22.81C240.38 -22.81 241.2 -22.41 241.81 -21.62C242.42 -20.82 242.74 -19.76 242.76 -18.44C242.76 -18.34 242.85 -18.29 243.02 -18.29C243.17 -18.29 243.25 -18.34 243.25 -18.44L243.21 -19.79L243.1 -23C243.1 -23.12 243.08 -23.21 243.04 -23.26C243 -23.31 242.94 -23.34 242.84 -23.34L227.15 -23.34C227.1 -23.34 227.08 -23.26 227.08 -23.11C227.08 -22.96 227.1 -22.89 227.15 -22.89C228.08 -22.89 228.75 -22.82 229.17 -22.68C229.59 -22.54 229.89 -22.3 230.05 -21.95C230.21 -21.61 230.32 -21.06 230.37 -20.31L230.37 -3.02C230.37 -2.28 230.28 -1.72 230.12 -1.36C229.96 -1 229.67 -0.76 229.25 -0.63C228.82 -0.51 228.15 -0.45 227.23 -0.45C227.15 -0.45 227.12 -0.37 227.12 -0.22C227.12 -0.07 227.15 0 227.23 0L243.88 0C244.11 0 244.26 -0.04 244.35 -0.13C244.44 -0.22 244.48 -0.36 244.48 -0.56C244.48 -2.63 244.58 -4.24 244.78 -5.41C244.8 -5.46 244.78 -5.51 244.7 -5.54C244.63 -5.58 244.55 -5.6 244.48 -5.6Z M254.52 0.04C255.39 0.11 256.15 0.15 256.8 0.15C258.97 0.15 260.97 -0.35 262.81 -1.36C264.65 -2.37 266.12 -3.8 267.22 -5.66C268.31 -7.51 268.86 -9.65 268.86 -12.06C268.86 -14.2 268.33 -16.13 267.27 -17.85C266.21 -19.56 264.73 -20.92 262.83 -21.92C260.93 -22.91 258.75 -23.41 256.31 -23.41C255.97 -23.41 255.27 -23.39 254.22 -23.34C253.38 -23.26 252.53 -23.22 251.68 -23.22C251.06 -23.22 250.25 -23.25 249.26 -23.3L247.58 -23.34C247.48 -23.34 247.43 -23.26 247.45 -23.11C247.46 -22.96 247.5 -22.89 247.58 -22.89C248.47 -22.89 249.14 -22.82 249.58 -22.68C250.01 -22.54 250.3 -22.3 250.45 -21.95C250.6 -21.61 250.69 -21.06 250.71 -20.31L250.71 -3.02C250.71 -2.28 250.63 -1.72 250.47 -1.36C250.31 -1 250.01 -0.76 249.58 -0.63C249.14 -0.51 248.47 -0.45 247.58 -0.45C247.48 -0.45 247.43 -0.37 247.45 -0.22C247.46 -0.07 247.5 0 247.58 0C248.27 0 248.83 -0.01 249.26 -0.04L251.72 -0.07C252.29 -0.07 252.82 -0.06 253.29 -0.04C253.76 -0.01 254.17 0.01 254.52 0.04ZM261.63 -1.61C260.13 -0.76 258.39 -0.34 256.43 -0.34C254.93 -0.34 253.93 -0.57 253.42 -1.05C252.91 -1.52 252.66 -2.31 252.66 -3.43L252.66 -20.24C252.66 -21.01 252.79 -21.59 253.05 -21.97C253.31 -22.36 253.71 -22.61 254.26 -22.74C254.81 -22.86 255.61 -22.92 256.65 -22.92C258.62 -22.92 260.34 -22.41 261.82 -21.38C263.3 -20.34 264.45 -18.94 265.26 -17.17C266.07 -15.41 266.47 -13.43 266.47 -11.24C266.47 -8.95 266.04 -6.98 265.18 -5.34C264.32 -3.7 263.14 -2.45 261.63 -1.61Z M272.26 -0.22C272.26 -0.07 272.29 0 272.37 0C273.12 0 273.7 -0.01 274.12 -0.04L276.51 -0.07L278.98 -0.04C279.38 -0.01 279.91 0 280.58 0C280.66 0 280.7 -0.07 280.7 -0.22C280.7 -0.37 280.65 -0.45 280.55 -0.45C279.62 -0.45 278.96 -0.51 278.55 -0.63C278.14 -0.76 277.86 -1 277.71 -1.34C277.56 -1.69 277.47 -2.25 277.45 -3.02L277.45 -20.24C277.47 -20.98 277.56 -21.54 277.71 -21.9C277.86 -22.26 278.14 -22.51 278.57 -22.66C278.99 -22.81 279.65 -22.89 280.55 -22.89C280.65 -22.89 280.7 -22.96 280.7 -23.11C280.7 -23.26 280.65 -23.34 280.55 -23.34L278.98 -23.3C277.98 -23.25 277.12 -23.22 276.4 -23.22C275.75 -23.22 274.96 -23.25 274.01 -23.3L272.33 -23.34C272.28 -23.34 272.26 -23.26 272.26 -23.11C272.26 -22.96 272.28 -22.89 272.33 -22.89C273.25 -22.89 273.92 -22.82 274.35 -22.68C274.77 -22.54 275.06 -22.3 275.23 -21.95C275.39 -21.61 275.47 -21.06 275.47 -20.31L275.47 -3.02C275.49 -2.28 275.42 -1.73 275.26 -1.38C275.1 -1.03 274.8 -0.79 274.37 -0.65C273.93 -0.52 273.25 -0.45 272.33 -0.45C272.28 -0.45 272.26 -0.37 272.26 -0.22Z M289.47 -0.22C289.47 -0.07 289.52 0 289.62 0C290.34 0 290.9 -0.01 291.3 -0.04L293.69 -0.07L296.15 -0.04C296.55 -0.01 297.11 0 297.83 0C297.88 0 297.91 -0.07 297.91 -0.22C297.91 -0.37 297.88 -0.45 297.83 -0.45C296.89 -0.45 296.2 -0.51 295.78 -0.63C295.36 -0.76 295.08 -1 294.94 -1.34C294.8 -1.69 294.72 -2.25 294.7 -3.02L294.62 -20.24C294.62 -20.93 294.68 -21.46 294.81 -21.8C294.93 -22.15 295.18 -22.4 295.56 -22.53C295.93 -22.67 296.5 -22.74 297.27 -22.74L298.39 -22.74C299.64 -22.74 300.59 -22.58 301.25 -22.25C301.91 -21.93 302.37 -21.41 302.63 -20.68C302.89 -19.96 303.02 -18.93 303.02 -17.59C303.02 -17.51 303.1 -17.47 303.26 -17.47C303.43 -17.47 303.51 -17.51 303.51 -17.59C303.48 -18.11 303.51 -19.1 303.58 -20.55C303.66 -22.01 303.73 -23.22 303.81 -24.19C303.83 -24.29 303.78 -24.35 303.64 -24.36C303.5 -24.37 303.41 -24.34 303.36 -24.27C303.26 -23.9 303.02 -23.65 302.65 -23.52C302.28 -23.4 301.68 -23.34 300.86 -23.34L298.24 -23.3C296.55 -23.25 295.02 -23.22 293.65 -23.22C290.61 -23.22 288.09 -23.26 286.07 -23.34C284.95 -23.34 284.39 -23.6 284.39 -24.12C284.39 -24.17 284.36 -24.21 284.3 -24.23C284.24 -24.26 284.17 -24.27 284.09 -24.27C283.97 -24.27 283.91 -24.23 283.91 -24.16C283.66 -20.55 283.47 -18.34 283.35 -17.55C283.35 -17.47 283.45 -17.44 283.64 -17.44C283.74 -17.44 283.79 -17.46 283.79 -17.51C283.97 -18.85 284.23 -19.9 284.58 -20.65C284.93 -21.39 285.43 -21.93 286.09 -22.25C286.75 -22.58 287.66 -22.74 288.83 -22.74L289.92 -22.74C290.74 -22.74 291.34 -22.68 291.73 -22.55C292.11 -22.43 292.38 -22.2 292.51 -21.86C292.65 -21.52 292.72 -21.01 292.72 -20.31L292.72 -3.02C292.74 -2.28 292.67 -1.72 292.51 -1.36C292.35 -1 292.05 -0.76 291.62 -0.63C291.18 -0.51 290.5 -0.45 289.58 -0.45C289.51 -0.45 289.47 -0.37 289.47 -0.22Z M311.33 -1.06C313.01 -0.06 314.95 0.45 317.14 0.45C319.43 0.45 321.53 -0.09 323.46 -1.18C325.39 -2.26 326.93 -3.78 328.08 -5.73C329.22 -7.69 329.79 -9.89 329.79 -12.36C329.79 -14.52 329.34 -16.47 328.45 -18.2C327.55 -19.93 326.28 -21.29 324.62 -22.27C322.97 -23.25 321.03 -23.75 318.82 -23.75C316.45 -23.75 314.3 -23.19 312.36 -22.07C310.41 -20.95 308.88 -19.41 307.75 -17.47C306.61 -15.53 306.05 -13.38 306.05 -11.01C306.05 -8.87 306.51 -6.93 307.43 -5.19C308.35 -3.45 309.65 -2.07 311.33 -1.06ZM323.63 -1.81C322.26 -0.95 320.66 -0.52 318.82 -0.52C316.77 -0.52 314.92 -1.04 313.25 -2.07C311.58 -3.11 310.27 -4.53 309.31 -6.35C308.36 -8.16 307.88 -10.21 307.88 -12.47C307.88 -14.56 308.27 -16.39 309.07 -17.96C309.87 -19.53 310.98 -20.73 312.41 -21.58C313.84 -22.43 315.47 -22.85 317.28 -22.85C319.3 -22.85 321.12 -22.33 322.74 -21.28C324.35 -20.24 325.62 -18.79 326.54 -16.95C327.47 -15.11 327.93 -13.04 327.93 -10.75C327.93 -8.74 327.55 -6.96 326.81 -5.41C326.06 -3.87 325 -2.67 323.63 -1.81Z M356.67 -0.22C356.67 -0.37 356.62 -0.45 356.53 -0.45C355.48 -0.45 354.4 -0.84 353.3 -1.62C352.19 -2.41 350.92 -3.68 349.49 -5.45C348.06 -7.22 346.27 -9.7 344.13 -12.88C345.27 -13.53 346.19 -14.37 346.87 -15.42C347.56 -16.47 347.9 -17.59 347.9 -18.78C347.9 -20.25 347.38 -21.39 346.33 -22.22C345.29 -23.04 343.79 -23.45 341.85 -23.45C341.25 -23.45 340.58 -23.41 339.84 -23.34C339.54 -23.31 339.19 -23.29 338.79 -23.26C338.39 -23.24 337.98 -23.22 337.56 -23.22C336.94 -23.22 336.13 -23.25 335.13 -23.3L333.3 -23.34C333.2 -23.34 333.15 -23.26 333.15 -23.11C333.15 -22.96 333.2 -22.89 333.3 -22.89C334.27 -22.89 334.98 -22.82 335.43 -22.68C335.88 -22.54 336.18 -22.3 336.35 -21.95C336.51 -21.61 336.6 -21.06 336.63 -20.31L336.63 -3.02C336.63 -2.28 336.53 -1.73 336.35 -1.38C336.16 -1.03 335.83 -0.79 335.36 -0.65C334.88 -0.52 334.16 -0.45 333.19 -0.45C333.09 -0.45 333.04 -0.37 333.04 -0.22C333.04 -0.07 333.09 0 333.19 0C333.96 0 334.57 -0.01 335.02 -0.04L337.48 -0.07L340.02 -0.04C340.45 -0.01 341.03 0 341.78 0C341.85 0 341.89 -0.07 341.89 -0.22C341.89 -0.37 341.84 -0.45 341.74 -0.45C340.77 -0.45 340.07 -0.51 339.65 -0.63C339.23 -0.76 338.94 -1 338.79 -1.34C338.64 -1.69 338.55 -2.25 338.53 -3.02L338.6 -11.95C339.15 -11.9 339.66 -11.87 340.13 -11.87C340.91 -11.87 341.73 -12 342.6 -12.25C345.11 -8.39 347.25 -5.38 349 -3.23C350.76 -1.08 351.96 0 352.61 0L356.53 0C356.62 0 356.67 -0.07 356.67 -0.22ZM340.77 -12.69C340.27 -12.69 339.52 -12.74 338.53 -12.84L338.53 -20.24C338.55 -21.11 338.64 -21.73 338.79 -22.1C338.94 -22.48 339.17 -22.71 339.48 -22.81C339.79 -22.91 340.3 -22.96 340.99 -22.96C342.49 -22.96 343.66 -22.53 344.52 -21.67C345.38 -20.82 345.81 -19.43 345.81 -17.51C345.81 -15.82 345.42 -14.59 344.63 -13.83C343.85 -13.07 342.56 -12.69 340.77 -12.69Z"></path></g></svg>