<?xml version="1.0" encoding="utf-8"?>
<!-- Generator: Adobe Adobe Illustrator 24.2.0, SVG Export Plug-In . SVG Version: 6.00 Build 0)  -->
<svg version="1.1" id="Layer_1" xmlns="http://www.w3.org/2000/svg" xmlns:xlink="http://www.w3.org/1999/xlink" x="0px" y="0px"
	 width="612px" height="792px" viewBox="0 0 612 792" style="enable-background:new 0 0 612 792;" xml:space="preserve">
<style type="text/css">
	.st0{display:none;opacity:0.7882;fill:#4E148C;}
	.st1{opacity:0.7412;fill:#66198F;}
	.st2{opacity:0.6902;fill:#9266AD;}
	.st3{fill:#7A1160;}
	.st4{opacity:0.3294;fill:#9498BE;}
	.st5{fill:url(#SVGID_1_);}
	.st6{opacity:0.8196;fill:#560F84;}
	.st7{fill:#591080;}
	.st8{opacity:0.2196;fill:#B165B2;}
	.st9{opacity:0.6902;fill:#50148C;}
	.st10{opacity:0.1882;fill:#AA53AA;}
	.st11{opacity:0.2196;fill:#CF94C7;}
	.st12{opacity:0.6902;fill:#E256AB;}
	.st13{opacity:0.8392;fill:url(#SVGID_2_);}
	.st14{opacity:0.3216;fill:#5D2695;}
	.st15{fill:#5D2695;}
	.st16{opacity:0.3686;fill:#431E70;}
	.st17{opacity:0.4196;fill:#CB3498;}
	.st18{opacity:0.6902;fill:#7B1591;}
	.st19{opacity:0.1804;fill:#D883C0;}
	.st20{opacity:0.2706;fill:#C058AC;}
	.st21{opacity:0.6902;fill:#8158AC;}
	.st22{opacity:0.6902;fill:#7D4FA2;}
	.st23{opacity:0.502;fill:#DE9BC7;}
	.st24{opacity:0.2196;fill:#B574AB;}
	.st25{opacity:0.8314;fill:#632E94;}
	.st26{fill:#712598;}
	.st27{opacity:0.302;fill:#BA60B0;}
	.st28{fill:#B165B2;}
	.st29{opacity:0.5294;fill:#AA53AA;}
	.st30{fill:#AA53AA;}
	.st31{opacity:0.2196;fill:#BE349C;}
	.st32{opacity:0.6902;fill:#9C4AA7;}
	.st33{opacity:0.4196;fill:#A4329C;}
	.st34{opacity:0.6902;fill:#B574AB;}
	.st35{fill:#F8C3E0;}
	.st36{font-family:'Westsac';}
	.st37{font-size:77px;}
	.st38{letter-spacing:4;}
	.st39{opacity:0.3686;fill:#AA57A5;}
	.st40{opacity:0.3098;fill:#6C57A5;}
</style>
<path class="st0" d="M303.29,203.27c38.1,1.55,69.05,12.93,75.85,46.21s1.37,46.69-19.27,51.32c-18.98,4.25-53.86,1.79-76.11-10.85
	c-1.95-1.11-12.52-6.07-14.55-6.51c-9.01-1.96-23.68-11.87-20.88-23.76C254.68,232.69,265.18,201.72,303.29,203.27z"/>
<g>
	<path class="st1" d="M394.34,349.85c0,0,79.48-4.63,93.72-5.4c14.24-0.77,31.2-1.58,40.61,11.08c9.41,12.66,10.64,23.89,0.57,30.67
		s-59.68,17.02-70.72,3.69c-11.04-13.33-8.19-22.85-13.35-27.55"/>
	<path class="st2" d="M446.09,361.08c9.72-2.82-2.84-50.69,9.18-58.36c20.14-12.87,41.36,19.39,51.85-3.33
		c1.22-2.64-22.25,50.74-28.17,57.05c-2.05,2.19-27.11-4.17-33.88-21.6c-0.57-1.47,0.92-20.93-42.5-32.12
		c-9.5-2.45-45.04,39-32.46,54.81C380.77,370.92,434.06,364.58,446.09,361.08z"/>
	<g>
		<rect x="-2.58" y="95" class="st3" width="612" height="612"/>
		<rect x="-2.58" y="95" class="st4" width="612" height="612"/>
	</g>
	
		<radialGradient id="SVGID_1_" cx="316.1057" cy="415.1033" r="262.6999" gradientTransform="matrix(0.9526 0 0 0.9526 0.6193 5.5717)" gradientUnits="userSpaceOnUse">
		<stop  offset="0" style="stop-color:#82CAB1;stop-opacity:0.6902"/>
		<stop  offset="0.0495" style="stop-color:#85BFAD;stop-opacity:0.7111"/>
		<stop  offset="0.2121" style="stop-color:#8A9DA1;stop-opacity:0.78"/>
		<stop  offset="0.3667" style="stop-color:#8E8297;stop-opacity:0.8455"/>
		<stop  offset="0.5092" style="stop-color:#8F6D90;stop-opacity:0.9059"/>
		<stop  offset="0.6352" style="stop-color:#90608C;stop-opacity:0.9592"/>
		<stop  offset="0.7314" style="stop-color:#905C8A"/>
		<stop  offset="1" style="stop-color:#833B7D"/>
	</radialGradient>
	<circle class="st5" cx="301.74" cy="401" r="304.43"/>
	<path class="st6" d="M274.41,282.71c28.35-25.5,79.23-30.55,107.33-11.47c28.1,19.08,12.81,24.05,1.27,41.77
		c-10.61,16.29-37.29,38.89-62.04,45.38c-2.17,0.57-13.19,4.4-14.96,5.5c-7.82,4.89-34.93-1.16-59.53-13.94
		S246.06,308.21,274.41,282.71z"/>
	<path class="st7" d="M246.75,258.57c0,0-35.09,7.92-45.68-8.18c-11.93-18.14,2.13-60.97,35.11-69.35
		c43.66-11.1,45.05,29.09,93.73,22.18c26.74-3.8,45.37-14.02,64.84-15.82c15.98-1.47,41.89,19.26,30.47,51.66
		c-4.21,11.95-22.4,14.58-35.48,9.34c-21.79-8.73-21.39-25.78-59.74-39.56C268.63,186.78,246.75,258.57,246.75,258.57z"/>
	<path class="st8" d="M253.05,249.76c0,0-33.06,6.15-43.03-6.35c-11.24-14.1,2.01-47.37,33.07-53.88
		c41.12-8.62,38.67,32.88,84.52,27.51c25.19-2.95,46.5-21.17,64.84-22.57c15.05-1.14,39.46,14.96,28.7,40.14
		c-3.97,9.28-21.1,11.32-33.42,7.25c-20.53-6.78-20.15-20.03-56.27-30.74C273.66,193.98,253.05,249.76,253.05,249.76z"/>
	<path class="st8" d="M253.05,249.76c0,0-33.06,6.15-43.03-6.35c-11.24-14.1,2.01-47.37,33.07-53.88
		c41.12-8.62,38.67,32.88,84.52,27.51c25.19-2.95,46.5-21.17,64.84-22.57c15.05-1.14,39.46,14.96,28.7,40.14
		c-3.97,9.28-21.1,11.32-33.42,7.25c-20.53-6.78-20.15-20.03-56.27-30.74C273.66,193.98,253.05,249.76,253.05,249.76z"/>
	<path class="st9" d="M307.72,203.78c36.14,2.03,68.28,23.07,75.27,53.05c0.87,3.75,0.27,14.54,0.27,14.54s-22.27-15.14-39.32-11.82
		c-8.96,1.75-23.63,12.57-23.63,12.57s-1.55-3.94-11.62-12.8c-1.63-1.43-22.24-11.7-24.18-12.13c-8.57-1.91-19.86-4.12-33-2.47
		C251.51,244.71,271.58,201.75,307.72,203.78z"/>
	<path class="st10" d="M114.24,363.89l146.52-2.46c0,0-17.02-14.78-10.35-26.9c11.5-20.93,25.68-35.86,25.68-35.86
		s-45.4-9.9-83.1-8.01c-14.55,0.73-23.8,18.28-26.23,27.23c-8.74,32.14,50.19,47.69,50.19,47.69s-29.34-37.2-55.02-43.56
		c-10.85-2.69-22.06,0.89-30.16,5.1C120.67,332.87,114.24,363.89,114.24,363.89z"/>
	<path class="st11" d="M261.48,249.97c0,0-31.42,5.28-40.9-5.45c-10.69-12.1,1.91-40.67,31.44-46.26
		c39.09-7.4,36.76,28.23,80.35,23.62c23.94-2.53,44.21-18.18,61.64-19.38c14.31-0.98,37.51,12.84,27.28,34.46
		c-3.77,7.97-20.06,9.72-31.77,6.23c-19.52-5.82-19.15-17.2-53.5-26.39C281.08,202.09,261.48,249.97,261.48,249.97z"/>
	<path class="st1" d="M394.34,349.85c0,0,68.98-8.86,83.22-9.62c14.24-0.77,20.46-3.16,11.2,10.32
		c-0.7,1.02-17.33,24.64-27.69,35.96c-5.19,5.67-8.06,3.38-8.06,3.38s22.7-36.91,17.55-41.61"/>
	<path class="st12" d="M151.01,309.5c1.77-15.54,16.52-44.91,62.01-56.65s94.46-12.72,114.32,24.11
		c19.86,36.84,9.84,57.97-12.86,70.77c-20.87,11.77-66.74,20.67-97.48,13.69c-2.7-0.61-6.29-1.22-8.71-2.09
		c0,0-30.12,12.92-49.74-15.05C138.94,316.33,149.99,318.49,151.01,309.5z"/>
	<linearGradient id="SVGID_2_" gradientUnits="userSpaceOnUse" x1="324.4275" y1="361.8603" x2="324.4275" y2="705.0721">
		<stop  offset="0" style="stop-color:#5A389F"/>
		<stop  offset="1" style="stop-color:#C02E9A"/>
	</linearGradient>
	<path class="st13" d="M170.72,323.64c30.92,55.13,41.59,32.49,77.88,45.2c16.34,5.72,17.21,11.64,21.8,21.98
		c7.22,16.28,16.75,64.27,14.37,81.86c-2.38,17.58,0.11,100.52-15.82,105.22c-32.05,9.44-96.24,16.91-100.37,17.46
		c-4.13,0.55-6.13-2.78-10.4,3.68c-4.27,6.45-1.36,105.67-1.36,105.67l273.53,2.3c0,0,3.55-91.41,0.9-101.08
		c-2.64-9.67-2.26-9.65-2.26-9.65s-84.37-9.69-92.19-20.25c-7.82-10.56-17.63-135.81-15.05-156.72c2.58-20.91-2.07-32.22,8.44-42.91
		s41.96-17.25,50.67-11.57s13.1,26.29,30.18,31.19c17.08,4.9,34.8,10.33,50.81-12.12c16.02-22.45,84.3-134.62,36.9-130.92
		c-8.01,0.62-19.62,3.54-31.94,12.22c-9.58,6.75-22.36,13.38-16.39,48.41c3.19,18.73-1.86,25.46,53.77,32.16
		c21.74,2.62,33.49,10.52,29.81,25.12c-5.45,21.65-17.02,31.59-56.94,27.44c-52.47-5.46-2.57-49.89-64.57-47.3
		c-41.72,1.74-203.62,13.18-203.62,13.18s-18.02,22.16-32.99,26.63c-16.16,4.82-9.54,11.52-49.15-8.46
		C87.4,362.52,151.38,289.14,170.72,323.64z"/>
	<path class="st14" d="M274.41,282.71c28.35-25.5,79.23-30.55,107.33-11.47c28.1,19.08,12.81,24.05,1.27,41.77
		c-10.61,16.29-37.29,38.89-62.04,45.38c-2.17,0.57-25.04,8.9-26.81,10.01c-7.82,4.89-33.83,13.32-51.66-4.51
		C222.89,344.28,246.06,308.21,274.41,282.71z"/>
	<path class="st16" d="M151.01,309.5c1.77-15.54,16.52-44.91,62.01-56.65s94.46-12.72,114.32,24.11
		c19.86,36.84,9.84,57.97-12.86,70.77c-20.87,11.77-66.74,20.67-97.48,13.69c-2.7-0.61-6.29-1.22-8.71-2.09
		c0,0-30.12,12.92-49.74-15.05C138.94,316.33,149.99,318.49,151.01,309.5z"/>
	<path class="st17" d="M336.13,277.25c13.16-11,27.04-15.68,39.79-3.73c12.75,11.95,15.17,19.26,9.76,27.52
		c-4.97,7.6-17.35,17.23-28.74,18.71c-1,0.13-6.08,1.27-6.89,1.71c-3.62,1.93-11.62,2.24-14.43-3.62
		C329.23,304.52,322.97,288.25,336.13,277.25z"/>
	<path class="st18" d="M310.25,212.68c33.9,2.81,64.64,21.57,72.09,47.13c0.93,3.2,0.69,12.31,0.69,12.31s-21.31-13.48-37.18-11.18
		c-8.34,1.21-22.17,10.12-22.17,10.12s-1.8-3.66-10.84-11.38c-1.53-1.3-21.18-10.57-23.01-10.99c-8.09-1.88-18.72-4.08-30.98-3.09
		C258.85,245.61,276.35,209.88,310.25,212.68z"/>
	<path class="st19" d="M477.95,351.17c9.72-2.82-31.41-4.69-28.62-18.68c19.15-96.04,51.06-18.85,61.55-41.57
		c1.22-2.64-22.25,50.74-28.17,57.05c-2.05,2.19-27.11-4.17-33.88-21.6c-0.57-1.47,6.33-29.09-38.5-29.09
		c-30.12,0-49.04,35.98-36.46,51.79C384.53,362.44,465.92,354.66,477.95,351.17z"/>
	<path class="st20" d="M171.75,307.06c1.54-14.19,14.36-41.03,53.9-51.75s82.09-11.62,99.36,22.03s8.55,52.96-11.18,64.65
		c-18.14,10.75-58,18.88-84.72,12.5c-2.34-0.56-5.46-1.11-7.57-1.91c0,0-26.18,11.8-43.23-13.75
		C161.26,313.3,170.86,315.27,171.75,307.06z"/>
	<path class="st2" d="M477.95,351.17c9.72-2.82-26.61-53.48-19.65-65.93c43.41-77.6,42.08,28.39,52.57,5.67
		c1.22-2.64-22.25,50.74-28.17,57.05c-2.05,2.19-18.11-10.78-24.88-28.21c-0.57-1.47-2.67-22.48-47.5-22.48
		c-30.12,0-49.04,35.98-36.46,51.79C384.53,362.44,465.92,354.66,477.95,351.17z"/>
	<path class="st21" d="M513.36,277.59c-0.48,14.26-0.96,13.1-19.91,44.35c-18.95,31.24-35.15,84.05-65.41,75.72
		c-15.89-4.38-38.7-65.33-102.13-21.38c-22.89,15.86-76.43-98.1,26.8-71.52c17.88,4.6,64.99-11.37,85.6-24.67
		c1.81-1.17,4.11-2.83,5.9-3.71c0,0,21.85-30.38,47.32-26.55S513.59,270.9,513.36,277.59z"/>
	<path class="st21" d="M513.36,277.59c-0.48,14.26-0.96,13.1-19.91,44.35c-18.95,31.24-35.15,84.05-65.41,75.72
		c-15.89-4.38-38.7-65.33-102.13-21.38c-22.89,15.86-76.43-98.1,26.8-71.52c17.88,4.6,64.99-11.37,85.6-24.67
		c1.81-1.17,4.11-2.83,5.9-3.71c0,0,21.85-30.38,47.32-26.55S513.59,270.9,513.36,277.59z"/>
	<path class="st22" d="M513.36,277.59c-0.48,14.26-0.96,13.1-19.91,44.35c-18.95,31.24-35.15,84.05-65.41,75.72
		c-15.89-4.38-38.7-65.33-102.13-21.38c-22.89,15.86-56.74-70.37,46.49-43.78c17.88,4.6,45.3-39.1,65.92-52.41
		c1.81-1.17,4.11-2.83,5.9-3.71c0,0,21.85-30.38,47.32-26.55S513.59,270.9,513.36,277.59z"/>
	<path class="st23" d="M513.36,277.59c-0.48,14.26-0.96,13.1-19.91,44.35c-18.95,31.24-35.15,84.05-65.41,75.72
		c-15.89-4.38-38.7-65.33-102.13-21.38c-22.89,15.86-76.43-98.1,26.8-71.52c17.88,4.6,64.99-11.37,85.6-24.67
		c1.81-1.17,4.11-2.83,5.9-3.71c0,0,21.85-30.38,47.32-26.55S513.59,270.9,513.36,277.59z"/>
	<path class="st24" d="M482.96,341.26c-4.36,5.83-0.26,6.7-0.26,6.7l-100.8,2.58c0,0,33.27-42.2,50.92-55.65
		c1.55-1.18,13.76-21.3,14.82-22.77c4.68-6.49,24.94-17.59,48.52-15.75c11.73,0.92,23.55-5.47,17.2,21.21
		C506.94,304.55,498.46,320.53,482.96,341.26z"/>
	<path class="st25" d="M380.93,270.7c11.71,5.56,5.95,3.82,16.75,10.07c31.43,18.18,76.25-22.55,89.22-25.55
		c23.71-5.48,20.27,0.72,20.27,0.72s-2.99-14.15-27.56-5.57c-5.29,1.85-21.81,17.17-28.76,32.53c-4.78,10.57-1.33,23.6-1.33,23.6
		s-16.97-11.13-40.69-9.23c-8.04,0.65-14.73,2.82-18.07,5.51c-7.32,5.9-13.83,9.86-13.83,9.86s20.7-12.42,20.7-21.85
		C397.62,281.93,379.41,269.98,380.93,270.7z"/>
	<path class="st26" d="M151.01,309.5c1.77-15.54,16.52-44.91,62.01-56.65s94.46-12.72,114.32,24.11
		c19.86,36.84,9.84,57.97-12.86,70.77c-20.87,11.77-66.74,20.67-97.48,13.69c-2.7-0.61-6.29-1.22-8.71-2.09
		c0,0-30.12,12.92-49.74-15.05C138.94,316.33,149.99,318.49,151.01,309.5z"/>
	<path class="st20" d="M171.75,307.06c1.54-14.19,14.36-41.03,53.9-51.75s82.09-11.62,99.36,22.03s8.55,52.96-11.18,64.65
		c-18.14,10.75-58,18.88-84.72,12.5c-2.34-0.56-5.46-1.11-7.57-1.91c0,0-26.18,11.8-43.23-13.75
		C161.26,313.3,170.86,315.27,171.75,307.06z"/>
	<path class="st27" d="M273.82,284.07c14.24-13.18,42.71-16.76,56.48,5.34c6.29,10.09,3.65,28.96,1.84,36.76
		c-0.63,2.7-17.86,7.82-30.75,7.92c-1.21,0.01-26.97,7.25-40.35-6.57C247.64,313.71,259.58,297.25,273.82,284.07z"/>
	<path class="st29" d="M128.46,356.85l130.26-1.92c0,0-13.1-8.17-8.69-21.29c7.61-22.64,31.41-42.66,31.41-42.66
		s-68.21-20.32-104.98-11.76c-14.19,3.3-20.17,22.22-20.98,31.45c-2.9,33.18,57.35,45.5,57.35,45.5s-34.98-38.88-61.37-40.58
		c-11.15-0.72-17.64,17.83-24.87,23.41C116.7,346.63,128.46,356.85,128.46,356.85z"/>
	<path class="st31" d="M393.25,349.15l75.38-2.62c0,0,9.23,9.94-12.67,42.14c-0.85,1.26-2.23,1.54-3.09,2.69
		c-8.7,11.74-52.17,2.97-58.45-15.97C388.47,357.46,393.25,349.15,393.25,349.15z"/>
	<path class="st32" d="M273.74,277.65c31.56-22.58,82.92-26.42,108.44-8.82c25.52,17.6,13.78,28.49-0.03,44.3
		c-12.69,14.54-46.36,27.89-71.87,33.4c-2.24,0.48-13.72,3.78-15.63,4.75c-8.43,4.29-38.69,20.62-61.54,8.75
		C210.26,348.16,242.17,300.23,273.74,277.65z"/>
	<path class="st33" d="M393.25,349.15l75.38-2.62c0,0,9.23,9.94-12.67,42.14c-0.85,1.26-2.23,1.54-3.09,2.69
		c-8.7,11.74-52.17,2.97-58.45-15.97C388.47,357.46,393.25,349.15,393.25,349.15z"/>
	<path class="st33" d="M461.85,381.8l29.47-35.27c0,0,3.91-10.78,29.79,4.01c1.32,0.75,8.93,8.48,9.35,9.85
		c4.33,13.95-22.41,33.17-41.4,27.05C471.08,381.66,461.85,381.8,461.85,381.8z"/>
	<path class="st33" d="M372.72,226.27l-14.06-27.63c0,0,36.12-15.79,58.83,5.46c1.16,1.08,8.14,11.65,8.62,13.43
		c4.85,18.21-16.38,34.09-32.61,24.55C378.12,233.04,372.72,226.27,372.72,226.27z"/>
	<path class="st34" d="M260.87,289.63c20.42-19.71,58.88-21.61,81.09-4.67c22.21,16.94,10.81,20.35,2.82,34.41
		c-7.34,12.93-26.63,30.33-45.15,34.57c-1.63,0.37-9.84,3.03-11.13,3.86c-5.73,3.67-26.15,17.69-45.42,6.09
		S240.45,309.34,260.87,289.63z"/>
	<text transform="matrix(1 0 0 1 282.7323 664.5641)" class="st35 st36 st37 st38">Tree Org</text>
	<path class="st39" d="M260.3,289.63c20.42-19.71,58.88-21.61,81.09-4.67c22.21,16.94,10.81,20.35,2.82,34.41
		c-7.34,12.93-26.63,30.33-45.15,34.57c-1.63,0.37-9.84,3.03-11.13,3.86c-5.73,3.67-26.15,17.69-45.42,6.09
		S239.88,309.34,260.3,289.63z"/>
	<path class="st39" d="M260.3,289.63c20.42-19.71,58.88-21.61,81.09-4.67c22.21,16.94,10.81,20.35,2.82,34.41
		c-7.34,12.93-26.63,30.33-45.15,34.57c-1.63,0.37-9.84,3.03-11.13,3.86c-5.73,3.67-26.15,17.69-45.42,6.09
		S239.88,309.34,260.3,289.63z"/>
	<path class="st40" d="M260.3,289.63c20.42-19.71,58.88-21.61,81.09-4.67c22.21,16.94,10.81,20.35,2.82,34.41
		c-7.34,12.93-26.63,30.33-45.15,34.57c-1.63,0.37-9.84,3.03-11.13,3.86c-5.73,3.67-26.15,17.69-45.42,6.09
		S239.88,309.34,260.3,289.63z"/>
</g>
</svg>
