<svg xmlns="http://www.w3.org/2000/svg" version="1.1" xlink="http://www.w3.org/1999/xlink" xmlns:svgjs="http://svgjs.com/svgjs" width="100%" height="100%" viewBox="1.1895368099212646 0.8229999542236328 97.62146759033203 98.35501098632812"><g><path d="M97.822 46.502c-.426-.3-10.604-7.297-28.826-7.297-3.855 0-7.795.33-11.795.961C57.062 15.197 46.166 2.437 45.59 1.788l-.848-.965-1.239.321c-1.054.276-25.95 7.076-40.137 44.518-.422.988-1.068 2.968-1.131 3.188l-.032.103c-3.958 14.629 4.008 29.692 18.127 34.29l.049.021c.81.24 1.636.38 2.461.542 4.662 9.353 14.139 15.372 24.432 15.372 3.739 0 7.397-.771 10.853-2.294l.095-.049c.205-.108 2.027-1.026 2.938-1.605 34.228-19.49 37.418-45.689 37.527-46.789l.126-1.234-.989-.705zM25.749 80.034l-.058-.009c-1.424-3.268-4.334-13.528 3.862-32.118l-3.819-1.688c-7.285 16.511-6.353 27.234-4.786 32.79C9.388 74.853 2.94 62.315 6.225 50.091c.251-.801.74-2.215.991-2.78l.045-.11c11.562-30.606 30.9-39.672 36.004-41.588 2.485 3.473 9.717 15.355 9.717 35.337 0 1.398-.031 2.824-.106 4.3a96.474 96.474 0 0 1-2.084 15.537l-.018.126c-.108.607-.472 2.056-.691 2.873-3.155 9.819-12.015 16.41-22.068 16.41-.755-.001-1.512-.087-2.266-.162zM59.037 91.62l-.126.073c-.485.332-1.79 1.013-2.513 1.383a22.632 22.632 0 0 1-9.125 1.923c-7.809 0-15.077-4.077-19.353-10.628.032 0 .063.009.094.009 11.89 0 22.369-7.791 26.077-19.37l.031-.094c.045-.234.597-2.234.768-3.312a101.011 101.011 0 0 0 2.214-17.182c4.046-.677 8.018-1.039 11.893-1.039 13.558 0 22.369 4.21 25.308 5.875-1.07 5.325-7.038 26.308-35.268 42.362z"></path></g></svg>